<svg width="16" height="15" fill="none" xmlns="http://www.w3.org/2000/svg"><path fill-rule="evenodd" clip-rule="evenodd" d="M8.313 2.356l-1.05 3.16a1.319 1.319 0 01-1.257.894H2.61l2.748 1.953c.463.33.657.913.48 1.446l-1.05 3.16 2.749-1.953c.463-.33 1.09-.33 1.553 0l2.748 1.954-1.05-3.161a1.277 1.277 0 01.48-1.446l2.749-1.953H10.62c-.573 0-1.08-.36-1.257-.893l-1.05-3.161zM8.73.828c-.131-.397-.706-.397-.837 0L6.425 5.25a.44.44 0 01-.419.298H1.254c-.427 0-.604.534-.26.78L4.84 9.06c.154.11.219.304.16.481l-1.47 4.423c-.132.397.333.728.678.482l3.845-2.733a.448.448 0 01.517 0l3.845 2.733c.345.246.81-.085.678-.482l-1.469-4.422a.426.426 0 01.16-.481l3.845-2.733c.345-.246.168-.78-.259-.78h-4.75a.44.44 0 01-.42-.298L8.732.828z" fill="#575757"/></svg>