<svg width="240" height="51" fill="none" xmlns="http://www.w3.org/2000/svg"><path d="M55.525 49.602c-.65.037-1.443.054-2.335.027-1.943-.058-11.243-.55-18.707-7.738-2.13-2.047-3.387-3.948-4.272-5.297-1.821-2.786-2.517-5.043-4.955-11.754a355.134 355.134 0 01-6.244-18.782c-.29-.801-1.63-4.51-1.76-4.83a.595.595 0 00-.559-.37h-.135a.62.62 0 00-.239.047c-.03.014-.212.095-.303.29-.01.024-.02.045-.024.06a75.975 75.975 0 00-2.33 6.934l-9.24 27.29c-.132.377-.263.756-.397 1.134a17.373 17.373 0 01-1.588 3.113A17.585 17.585 0 01.16 42.561a.548.548 0 00.39.935h3.4a.548.548 0 00.529-.694c-.18-.624-.34-1.393-.408-2.275a7.96 7.96 0 01.297-2.776l3.089-9.124a20.703 20.703 0 017.665 1.192c4.568 1.636 7.56 4.515 9.266 6.642l.03.04a30.538 30.538 0 001.606 2.444c4.11 5.645 10.081 9.711 17.604 11.008 4.528.778 8 .488 8.882.384a27.105 27.105 0 003.043-.541c.115-.027.093-.2-.027-.193h-.002zM20.551 28.024c.532 1.51 1.347 3.6 2.547 6.011a21.436 21.436 0 00-7.746-4.857 21.343 21.343 0 00-7.664-1.234l6.49-19.165c2.125 6.415 4.248 12.83 6.373 19.243v.002zm-6.5-19.621l-.027-.01.012-.036.015.044v.002zm196.091 28.41a19.57 19.57 0 01-5.263 3.193c-7.865 3.19-18.625 1.422-24.189-5.752-1.979-2.551-3.361-5.674-3.887-9.248-1.59-9.228 2-19.767 11.784-22.734C193.159.885 200.165.794 204.33 5.396c1.378 1.524 2.144 3.216 2.576 4.672.18.607 1.051.584 1.192-.034.038-.162.073-.33.108-.503.073-.372.563-2.393.301-3.422-.632-2.47-5.813-4.109-8.058-4.768-5.84-1.556-12.029-.98-17.368 1.606-19.023 9.201-15.119 37.841 6.757 41.008 6.184.894 15.891-.513 20.609-6.83l.013-.017c.157-.21-.117-.468-.318-.3v.005zm28.515 1.72a13.413 13.413 0 01-4.212 3.28c-.724.358-1.425.62-2.073.814l-.156.043a8.609 8.609 0 01-1.17.145h-6.836a2.255 2.255 0 01-.829-.162c-.021-.008-.038-.018-.059-.027a3.953 3.953 0 01-.933-.617c-.483-.432-.729-.87-.92-1.215 0 0-.056-.103-.109-.213-.305-.632-.545-2.194-.672-3.208a12.746 12.746 0 01-.099-1.61l.003-11.601c-.027-.17-.18-1.249.541-2.078.245-.283.539-.473.828-.604a2.244 2.244 0 01.861-.158h5.818a3.64 3.64 0 011.089.172l.019.005a6.45 6.45 0 013.325 2.428c.238.334.761.173.761-.239v-5.33a.418.418 0 00-.757-.244 6.444 6.444 0 01-3.28 2.368 5.453 5.453 0 01-1.173.16h-5.495c-.126.005-.283 0-.459-.03a2.344 2.344 0 01-.373-.097c-.479-.188-.953-.483-1.279-.963-.444-.654-.43-1.37-.426-1.637.027-1.765.011-7.215.03-14.63.036-.217.181-.894.783-1.436.057-.052.115-.094.173-.137a1.19 1.19 0 01.19-.104c.237-.102.468-.107.699-.113h8.581a8.187 8.187 0 011.183.148l.143.04c.65.193 1.349.456 2.073.814a13.402 13.402 0 014.212 3.28.476.476 0 00.838-.309v-.31a4.343 4.343 0 00-4.342-4.343h-14.878v.004L213.729.81a.495.495 0 00-.392.8c.311.397.637.876.933 1.44 1.209 2.3 1.122 4.509 1.122 5.39l-.017 28.58a9.19 9.19 0 01-2.033 5.664.496.496 0 00.389.805h21.424a4.342 4.342 0 004.342-4.343v-.31a.476.476 0 00-.838-.308l-.002.004zm-99.931-16.254v-.061c.219-12.313-8.473-19.68-18.278-21.36a21.89 21.89 0 00-4.874-.365c-9.168.185-18.196 5.289-21.002 15.889-2.372 9.471 1.12 19.815 9.702 24.502a23.882 23.882 0 007.417 2.713c1.512.333 3.082.51 4.692.51 2.273 0 4.465-.35 6.527-.997 8.819-2.47 15.961-9.851 15.818-20.83l-.002-.002zM103.469 5.678c.358-.33.708-.615 1.04-.864a21.022 21.022 0 018.475-3.385 15.514 15.514 0 012.277-.069c2.256.184 4.601.83 6.943 1.997 12.621 5.91 15.923 28.226 5.229 36.64a8.62 8.62 0 01-.286.218l-.004.004c-.004.004-.01.006-.015.01.051-.064.107-.128.155-.197.209-.299.382-.616.46-.976a2.843 2.843 0 00-.193-1.84c-.345-.748-.93-1.22-1.723-1.427-.506-.132-1.008-.081-1.497.097-.298.11-.574.259-.834.456l-.045-.243c-.2-.998-.802-1.652-1.73-2.027a2.35 2.35 0 00-.41-.111 2.474 2.474 0 00-1.173.03c-.846.24-1.379.828-1.727 1.602-.18.401-.241.837-.25 1.278-.015.673.11 1.325.302 1.966.201.673.476 1.315.794 1.94.388.762.832 1.489 1.33 2.183h-.003c-.074.01-.147.023-.222.034-13.657 1.695-21.935-11.7-21.567-24.568v-.066c-.03-4.971 1.48-9.059 3.968-11.987.214-.227.448-.461.705-.698l.001.003z" fill="#000"/><path d="M168.787 1.061h-4.063a.549.549 0 00-.438.878 11.298 11.298 0 012.086 5.086c.014.148.022.287.026.421v26.74C153.56 13.292 148.394 5.063 147.224 3.4a5.527 5.527 0 00-4.514-2.337h-2.501c-.231 0-.4.172-.427.371-.016.1.002.206.067.3a15.908 15.908 0 011.884 3.777c.082.246.155.486.223.721a3.13 3.13 0 01.099.816V37.51a5.352 5.352 0 01-.154 1.178 12.89 12.89 0 01-.532 1.544 12.371 12.371 0 01-1.468 2.661.55.55 0 00.444.876h4.063a.549.549 0 00.438-.878 11.3 11.3 0 01-2.086-5.087 6.474 6.474 0 01-.026-.42V6.396a876904.57 876904.57 0 0022.959 37.038.76.76 0 00.327.272c.003 0 .003.002.004.002a.761.761 0 001.052-.698V7.32a5.33 5.33 0 01.154-1.178c.124-.474.294-.953.532-1.544a12.37 12.37 0 011.468-2.662.55.55 0 00-.444-.875l.001.001zm-77.639 0h-4.063a.549.549 0 00-.439.878 11.2 11.2 0 012.085 5.085c.014.149.023.287.027.42v26.743C75.921 13.29 70.754 5.062 69.584 3.399l-.017-.024a5.515 5.515 0 00-2.213-1.819.546.546 0 00-.55-.536h-4.062a.566.566 0 00-.229.048.428.428 0 00-.37.367.408.408 0 00.085.323.618.618 0 00.074.14c.058.082.12.163.178.252a15.78 15.78 0 011.501 3.043c.206.65.333 1.253.41 1.79.014.148.02.287.024.421v26.742C51.578 13.251 46.412 5.021 45.241 3.36l-.017-.025a5.527 5.527 0 00-4.497-2.312h-2.5a.43.43 0 00-.36.671A15.927 15.927 0 0139.75 5.47c.084.247.156.485.225.722a3.238 3.238 0 01.099.815v30.46h-.003a5.258 5.258 0 01-.153 1.178c-.124.475-.292.954-.529 1.544a12.375 12.375 0 01-1.468 2.661.55.55 0 00.444.876h4.063a.549.549 0 00.439-.879 11.32 11.32 0 01-2.088-5.084 6.87 6.87 0 01-.025-.421V6.354c7.365 11.886 14.733 23.767 22.097 35.65l.86 1.388c.08.12.194.215.327.272.003 0 .003.002.004.002a.756.756 0 001.051-.698V7.278c.004-.173.016-.36.04-.564.01-.07.019-.138.03-.204 7.63 12.309 15.26 24.618 22.89 36.924a.75.75 0 00.326.272c.003 0 .003.002.005.002a.756.756 0 001.051-.698V7.32c.003-.172.013-.36.038-.563.03-.226.07-.43.115-.616.124-.472.293-.952.532-1.542a12.374 12.374 0 011.468-2.661.55.55 0 00-.444-.876h.004z" fill="#000"/></svg>