<svg width="68" height="14" fill="none" xmlns="http://www.w3.org/2000/svg"><path d="M15.547 13.755c-.182.01-.404.015-.654.008-.544-.017-3.148-.154-5.238-2.167a7.996 7.996 0 01-1.196-1.483c-.51-.78-.705-1.412-1.387-3.291a99.457 99.457 0 01-1.749-5.26C5.243 1.339 4.867.3 4.83.212a.167.167 0 00-.156-.104h-.038A.174.174 0 004.57.12c-.008.004-.06.027-.085.081l-.006.017c-.251.643-.469 1.29-.653 1.941L1.238 9.801l-.111.317a4.864 4.864 0 01-1.082 1.666.153.153 0 00.11.261h.951a.153.153 0 00.148-.194 3.181 3.181 0 01-.114-.637 2.23 2.23 0 01.083-.777l.865-2.555a5.796 5.796 0 012.146.334 5.875 5.875 0 012.595 1.86l.009.011a8.962 8.962 0 00.45.684c1.15 1.58 2.822 2.72 4.928 3.082 1.268.218 2.24.137 2.487.108a7.61 7.61 0 00.852-.152c.032-.007.026-.055-.008-.053zM5.754 7.713c.15.423.377 1.008.713 1.683a6.002 6.002 0 00-2.169-1.36 5.976 5.976 0 00-2.145-.345L3.97 2.325l1.784 5.388zM3.934 2.22l-.007-.002.003-.01.004.012zm54.906 7.954c-.358.302-.848.64-1.474.894-2.202.893-5.215.399-6.773-1.61a5.498 5.498 0 01-1.088-2.59c-.445-2.584.56-5.534 3.3-6.365 1.28-.389 3.241-.414 4.407.875.386.426.6.9.722 1.308.05.17.294.163.333-.01.011-.045.02-.092.03-.14.021-.105.158-.67.085-.959-.177-.692-1.628-1.15-2.256-1.335a7.025 7.025 0 00-4.863.45c-5.327 2.576-4.234 10.595 1.892 11.482 1.731.25 4.45-.144 5.77-1.912l.004-.005c.044-.059-.033-.131-.09-.084v.001zm7.984.482a3.754 3.754 0 01-1.76 1.146l-.043.012a2.46 2.46 0 01-.328.04h-1.914a.63.63 0 01-.232-.045l-.017-.007a1.105 1.105 0 01-.261-.173 1.192 1.192 0 01-.258-.34l-.03-.06c-.086-.177-.153-.614-.188-.898-.02-.15-.028-.3-.028-.45V6.63c-.007-.046-.05-.349.152-.581a.666.666 0 01.232-.169.628.628 0 01.241-.044h1.63a1.02 1.02 0 01.304.048l.006.001a1.807 1.807 0 01.93.68c.067.094.214.048.214-.067V5.007c0-.114-.146-.16-.212-.069a1.803 1.803 0 01-.919.663 1.526 1.526 0 01-.328.045h-1.539a.619.619 0 01-.233-.035.752.752 0 01-.358-.27c-.124-.183-.12-.384-.12-.458.008-.494.004-2.02.01-4.096.01-.061.05-.25.218-.403.016-.014.033-.026.049-.038a.344.344 0 01.053-.03.481.481 0 01.196-.03h2.403a2.287 2.287 0 01.33.04l.04.012a3.697 3.697 0 011.76 1.146.133.133 0 00.235-.086V1.31c0-.672-.544-1.216-1.215-1.216h-4.166l-1.834.001a.139.139 0 00-.11.224c.087.11.179.245.262.403.338.644.314 1.262.314 1.509l-.005 8.003a2.572 2.572 0 01-.57 1.585.139.139 0 00.11.226h5.999c.67 0 1.215-.545 1.215-1.216v-.087a.133.133 0 00-.234-.086h-.001zM38.843 6.105v-.018c.062-3.447-2.372-5.51-5.118-5.98a6.127 6.127 0 00-1.364-.102c-2.567.051-5.095 1.48-5.88 4.448-.665 2.652.313 5.549 2.716 6.861.657.375 1.36.625 2.076.76a6.107 6.107 0 003.142-.137c2.47-.691 4.469-2.758 4.429-5.832zm-9.872-4.649c.1-.092.199-.172.291-.241a5.887 5.887 0 012.374-.948 4.343 4.343 0 01.637-.02 5.335 5.335 0 011.944.56c3.534 1.654 4.459 7.903 1.465 10.259l-.08.06-.002.002-.004.003c.014-.018.03-.036.043-.056a.762.762 0 00.075-.788.702.702 0 00-.482-.4.694.694 0 00-.42.028.887.887 0 00-.233.127l-.013-.068c-.056-.279-.224-.462-.484-.567a.654.654 0 00-.115-.031.693.693 0 00-.328.008c-.237.067-.386.232-.484.448a.916.916 0 00-.07.358c-.004.189.03.371.085.551.056.188.133.368.222.543.109.214.233.417.372.611l-.062.01c-3.825.475-6.142-3.276-6.04-6.88v-.018c-.008-1.392.415-2.536 1.112-3.356.06-.064.125-.13.197-.195z" fill="#000"/><path d="M47.26.164h-1.137A.154.154 0 0046 .41a3.17 3.17 0 01.584 1.424c.004.041.006.08.007.118v7.487c-3.594-5.85-5.04-8.155-5.369-8.62a1.548 1.548 0 00-1.264-.654h-.7a.12.12 0 00-.12.103.114.114 0 00.02.084 4.46 4.46 0 01.59 1.26.893.893 0 01.027.228v8.529a1.484 1.484 0 01-.043.33 3.57 3.57 0 01-.149.432 3.464 3.464 0 01-.41.745.154.154 0 00.123.246h1.138a.154.154 0 00.123-.246 3.171 3.171 0 01-.584-1.424 1.967 1.967 0 01-.008-.118V1.658l6.429 10.37a.21.21 0 00.092.076.212.212 0 00.295-.195V1.916a1.508 1.508 0 01.043-.33 3.52 3.52 0 01.15-.432c.12-.305.27-.552.41-.746a.154.154 0 00-.124-.245zM25.84.011h-1.138a.154.154 0 00-.123.246 3.167 3.167 0 01.584 1.424c.003.042.006.08.007.118v7.488c-3.594-5.851-5.04-8.155-5.369-8.621a1.545 1.545 0 00-.624-.516.153.153 0 00-.154-.15h-1.137a.159.159 0 00-.064.013.12.12 0 00-.104.103.114.114 0 00.019.084l.005.006a.17.17 0 00.02.04c.017.023.034.045.05.07.151.237.3.522.42.852.058.182.094.351.115.502.004.04.006.08.007.117v7.488c-3.594-5.85-5.04-8.155-5.369-8.62L12.98.648A1.548 1.548 0 0011.723 0h-.7a.12.12 0 00-.12.104.114.114 0 00.019.084 4.456 4.456 0 01.59 1.26.832.832 0 01.028.228v8.529h-.001a1.538 1.538 0 01-.043.33 3.622 3.622 0 01-.148.432 3.464 3.464 0 01-.411.745.154.154 0 00.124.245h1.138a.154.154 0 00.122-.246 3.167 3.167 0 01-.584-1.424 1.89 1.89 0 01-.007-.117V1.493l6.187 9.983.24.388a.213.213 0 00.387-.119V1.752c.002-.048.006-.1.012-.158l.009-.057 6.409 10.339a.21.21 0 00.091.076h.001a.212.212 0 00.295-.195V1.764a1.512 1.512 0 01.043-.33 3.48 3.48 0 01.148-.432c.122-.305.272-.552.411-.746a.154.154 0 00-.124-.245h.001z" fill="#000"/></svg>