<svg width="105" height="33" fill="none" xmlns="http://www.w3.org/2000/svg"><path d="M9.25 20.97c.145 2.518.145 5.618 0 9.3-3.004-1.357-5.329-3.294-6.927-5.716C.53 21.793-.197 18.547.046 14.818.24 11.91 1.208 9.296 3.049 6.97a17.215 17.215 0 016.055-4.893l.049.049c.048 0 .048.048.096.048a97.198 97.198 0 010 9.204c-1.307.242-2.228.338-2.858.145-.145-.29-.242-.824-.145-1.599.049-.823.049-1.356-.097-1.598-.484.145-1.017.775-1.647 1.84-1.356 2.422-1.84 5.28-1.307 8.623.339 2.276 1.307 4.117 2.857 5.473.194-.242.243-.726.194-1.453-.048-.969-.048-1.55-.048-1.792a9.24 9.24 0 013.051-.049zm10.947-6.392a295.56 295.56 0 010 16.034c-1.26.533-2.761.775-4.554.775-1.792 0-3.294-.242-4.505-.775-.193-2.132-.242-5.377-.097-9.833.533-.243 1.55-.291 2.907-.097.048.145.048 1.55 0 4.214-.049 2.034 0 3.148.097 3.342.194.29.63.485 1.356.436.581 0 1.114-.097 1.599-.29.242-3.294.29-6.879.145-10.754-.581-.194-1.55-.194-2.955-.194-1.502.049-2.519 0-3.052-.097-.145-8.283-.193-13.66-.097-16.227 1.211-.436 2.713-.678 4.554-.63 1.744 0 3.245.243 4.553.63a115.38 115.38 0 010 10.027 7.1 7.1 0 01-2.858 0c-.097-.92-.097-2.18-.097-3.73 0-2.13.049-3.39.049-3.826-.29-.242-.775-.388-1.453-.388-.679 0-1.211.049-1.647.242-.097 1.163-.097 2.955-.097 5.329 0 3.051.048 4.844.048 5.377.34.145 1.696.242 4.07.338l2.034.097zM25.43 28.24c-1.404 1.065-2.518 1.744-3.439 1.937V2.52c0-.097.097-.194.146-.243 4.117 1.793 6.83 4.844 8.137 9.204-1.307.145-2.228.194-2.858.097-.242-.194-.532-.775-.968-1.696-.34-.726-.727-1.21-1.211-1.404-.29 3.778-.34 9.058-.194 15.79.581-.241 1.211-1.162 1.986-2.712.63-1.356 1.017-2.519 1.017-3.488 0-.193-.194-.29-.581-.29-.484 0-.727 0-.775-.049a9.423 9.423 0 010-2.858 21.854 21.854 0 014.36 0c.387 5.571-1.502 10.027-5.62 13.37zM39.072.695c.401 0 .752 0 1.053.05.3 0 .552.05.802.1l.752.151-.15 1.605c-.25 0-.501-.05-.752-.05h-1.705c-.301 0-.552.05-.752.2-.2.15-.301.351-.401.702-.05.351-.1.803-.1 1.405 0 .601.05 1.103.1 1.404.05.35.2.551.4.702.201.15.452.2.753.2h1.454c.401 0 .752-.05 1.153-.1l.151 1.605a5.29 5.29 0 01-1.204.3c-.4.05-.902.1-1.554.1-.853 0-1.555-.15-2.106-.4-.502-.251-.903-.702-1.154-1.304-.25-.602-.35-1.454-.35-2.457 0-1.053.1-1.856.35-2.458.251-.601.602-1.053 1.154-1.303.551-.301 1.253-.452 2.106-.452zm5.312 2.409l.251 1.203.2.15v4.514H42.68V3.104h1.705zm2.859-.15l-.2 1.955h-.552c-.251 0-.502 0-.803.05-.3.05-.652.15-1.053.251l-.15-1.153c.4-.351.802-.652 1.203-.853.401-.2.803-.3 1.204-.3h.35v.05zm3.563-.001c1.053 0 1.805.15 2.256.502.452.35.652.852.652 1.554 0 .552-.15.953-.451 1.204-.3.25-.852.4-1.605.4h-3.21V5.562h2.609c.25 0 .45-.05.501-.1.05-.1.1-.201.1-.402 0-.25-.05-.4-.2-.451-.1-.1-.301-.1-.602-.1-.25 0-.502 0-.652.1-.15.05-.25.2-.3.401-.051.2-.101.552-.101.953 0 .401.05.752.1 1.003.05.25.2.401.351.501.2.1.452.15.752.15.251 0 .602 0 1.003-.05.401 0 .853-.05 1.304-.1l.2 1.304c-.25.15-.55.2-.852.301-.3.05-.602.1-.953.15-.3.05-.651.05-.952.05-.803 0-1.404-.1-1.906-.35a1.958 1.958 0 01-1.003-1.003c-.2-.452-.3-1.003-.3-1.705 0-.753.1-1.404.3-1.856a1.96 1.96 0 011.003-1.003c.552-.3 1.154-.4 1.956-.4zm8.677 2.457v1.104h-2.508c-.2 0-.3.05-.4.15-.101.1-.101.2-.101.351v.2c0 .151.05.251.15.352.1.1.251.1.452.1.2 0 .4-.05.601-.15.201-.1.452-.201.652-.351.2-.15.401-.301.552-.502v.752c-.05.15-.15.301-.301.452-.15.2-.3.4-.501.551-.201.2-.452.351-.753.502-.3.15-.652.2-1.003.2-.35 0-.702-.05-1.002-.2-.301-.15-.552-.301-.703-.552-.2-.25-.25-.552-.25-.903v-.601c0-.452.15-.853.501-1.104.351-.25.803-.4 1.354-.4h3.26v.05zm-1.605-2.457c.552 0 .953.05 1.354.2.351.151.652.402.852.703.201.35.301.802.301 1.354v3.76H58.68l-.3-1.253-.151-.2V5.26c0-.25-.05-.401-.2-.502-.1-.1-.302-.15-.602-.15h-1.154c-.451 0-.902.05-1.404.05l-.2-1.404c.3-.05.652-.1 1.003-.15.35-.05.802-.1 1.153-.1.451-.05.802-.05 1.053-.05zm7.82.149v1.354h-4.664V3.203l1.153-.05h3.51v-.05zm-1.505-1.554v5.416c0 .15.05.3.15.4.1.101.251.101.452.101h.702l.25 1.404c-.15.05-.35.1-.551.15-.2.051-.451.051-.702.101-.25 0-.401.05-.602.05-.551 0-1.003-.15-1.304-.451a1.66 1.66 0 01-.501-1.204V1.548h2.106zM68.054.496c.401 0 .602.2.602.652v.602c0 .4-.2.652-.602.652h-.903c-.4 0-.601-.2-.601-.652v-.602c0-.401.2-.652.601-.652h.903zm.602 2.608V8.97H66.55V3.104h2.106zm7.57-.001L74.42 8.468c-.05.15-.15.301-.251.351-.1.1-.25.15-.451.15h-1.856a.57.57 0 01-.401-.15c-.1-.1-.2-.2-.25-.35l-1.806-5.366h2.256l.853 3.41c.05.15.1.35.1.551.05.2.05.351.1.552h.151c.05-.2.05-.351.1-.552.05-.2.05-.35.1-.551l.853-3.41h2.307zm3.416-.15c1.053 0 1.806.15 2.257.502.451.35.652.852.652 1.554 0 .552-.15.953-.452 1.204-.3.25-.852.4-1.604.4h-3.21V5.562h2.608c.25 0 .451-.05.501-.1.05-.1.1-.201.1-.402 0-.25-.05-.4-.2-.451-.1-.1-.3-.1-.602-.1-.25 0-.501 0-.651.1-.151.05-.251.2-.301.401-.05.2-.1.552-.1.953 0 .401.05.752.1 1.003.05.25.2.401.35.501.201.1.452.15.753.15.25 0 .602 0 1.003-.05.4 0 .852-.05 1.304-.1l.2 1.304c-.25.15-.551.2-.852.301-.301.05-.602.1-.953.15-.301.05-.652.05-.953.05-.802 0-1.404-.1-1.906-.35a1.958 1.958 0 01-1.002-1.003c-.201-.452-.301-1.003-.301-1.705 0-.753.1-1.404.3-1.856a1.963 1.963 0 011.003-1.003c.602-.3 1.204-.4 1.956-.4zm-40.968 9.53c.4 0 .852.05 1.404.1.501.05 1.003.15 1.454.301l-.15 1.454h-3.16c-.1 0-.2.05-.3.05-.05.05-.151.1-.151.151-.05.05-.05.15-.05.3 0 .201.05.352.15.452.1.1.301.2.602.301l1.504.552c.652.25 1.104.601 1.405.952.25.402.4.853.4 1.505 0 .451-.05.852-.15 1.153-.1.301-.3.552-.551.752-.251.201-.552.301-1.003.402-.402.1-.903.15-1.505.15-.25 0-.702 0-1.203-.05-.552-.05-1.154-.15-1.805-.3l.15-1.555c.451 0 .902 0 1.254.05h1.604c.251 0 .452 0 .602-.05.15-.05.25-.1.3-.151.051-.05.101-.2.101-.3 0-.151 0-.252-.05-.302a.39.39 0 00-.2-.2c-.1-.05-.251-.1-.402-.15l-1.604-.653c-.652-.25-1.104-.601-1.354-.952-.251-.351-.401-.853-.401-1.455 0-.451.05-.852.2-1.153.1-.301.3-.552.552-.702.25-.15.551-.301 1.003-.351.3-.25.802-.301 1.354-.301zm5.611-.204c.401 0 .602.2.602.652v.602c0 .4-.2.651-.602.651h-.903c-.4 0-.601-.2-.601-.651v-.602c0-.401.2-.652.601-.652h.903zm.602 2.658v5.867H42.73v-5.867h2.157zm2.208 3.211l1.003.2c-.1.051-.15.101-.2.252-.05.1-.05.2.05.35.05.101.2.151.4.201l2.157.2c.652.05 1.103.252 1.404.502.251.301.401.702.401 1.304 0 .552-.1.953-.35 1.204-.201.3-.552.451-1.054.551-.451.1-1.103.15-1.905.15-.652 0-1.204-.05-1.655-.1-.401-.05-.752-.15-1.003-.3-.25-.15-.401-.301-.502-.502-.1-.2-.15-.502-.15-.802 0-.251.05-.452.15-.652.1-.2.251-.351.502-.502.25-.15.552-.25 1.003-.4l.953-.252.752.251-.401.25c-.2.151-.401.302-.502.352-.15.1-.2.15-.25.25a.54.54 0 00-.1.302c0 .1.05.25.1.3.05.05.2.15.35.15.201.051.402.051.703.051.35 0 .601 0 .802-.05.2-.05.3-.05.401-.15.05-.05.1-.151.1-.301s-.05-.201-.1-.251c-.05-.05-.15-.1-.3-.1-.151-.05-.302-.05-.552-.1l-1.705-.151c-.301-.05-.602-.1-.753-.251-.2-.15-.3-.3-.4-.502-.05-.2-.101-.4-.05-.601.05-.2.1-.401.25-.552.05-.15.25-.25.451-.3zm1.806-3.41c.701 0 1.303.05 1.704.2.402.151.703.302.903.603.2.25.301.652.301 1.103 0 .451-.1.802-.25 1.103-.201.25-.502.451-.903.602-.452.1-1.003.2-1.705.2-.703 0-1.254-.05-1.705-.2-.452-.1-.753-.301-.903-.602-.2-.25-.3-.652-.3-1.103 0-.451.1-.802.3-1.103.2-.251.501-.452.953-.602.35-.1.902-.2 1.605-.2zm0 1.254c-.352 0-.602.05-.703.15-.15.1-.2.251-.2.502 0 .25.05.401.2.501.15.1.351.15.703.15.35 0 .601-.05.752-.15.15-.1.2-.25.2-.501 0-.25-.05-.401-.2-.502-.15-.1-.401-.15-.752-.15zm3.56-1.053l-.1.802-1.605.251-.451-1.053h2.156zm2.863-2.406v1.856c0 .35 0 .651-.05.952-.05.301-.1.552-.15.752l.2.15v4.514h-2.156v-8.274h2.156v.05zm2.207 2.207c1.153 0 1.705.551 1.705 1.654v4.363h-2.157v-3.71a.78.78 0 00-.1-.402c-.05-.05-.2-.1-.401-.1-.2 0-.401.05-.652.1-.2.05-.502.15-.853.301l-.2-1.003a4.361 4.361 0 011.304-.902 3.31 3.31 0 011.354-.302zm7.069.198v1.354h-4.664V15.04l1.153-.05h3.51v-.05zm-1.505-1.604v5.415c0 .15.05.301.15.402.1.1.251.1.452.1h.702l.25 1.404c-.15.05-.35.1-.551.15-.2.05-.451.05-.702.1-.25 0-.401.05-.602.05-.551 0-1.003-.15-1.304-.45a1.66 1.66 0 01-.501-1.204v-5.967h2.106zm8.375-.851c.401 0 .752 0 1.053.05.301 0 .602.05.853.1.25.05.551.1.802.2l-.15 1.606H71.52c-.25 0-.501.05-.702.1-.2.05-.35.2-.45.351a1.88 1.88 0 00-.252.702c-.05.3-.05.702-.05 1.204 0 .601.05 1.053.1 1.404.05.35.201.551.352.702.15.15.4.2.702.2.2 0 .4 0 .551-.05.15-.05.301-.05.451-.1.151-.05.251-.1.352-.15l.2.952c-.1.15-.25.351-.501.502-.2.2-.502.35-.853.501-.35.15-.702.2-1.153.2-.602 0-1.103-.15-1.505-.45-.4-.302-.702-.753-.852-1.355-.2-.601-.301-1.454-.301-2.457 0-1.053.1-1.905.351-2.507.25-.602.652-1.053 1.204-1.304a6.531 6.531 0 012.306-.401zm3.11 3.61v4.664h-1.605l-.301-1.254-.2-.4v-3.06h2.105v.05zm2.757-1.156l.25 1.204.201.15v4.513h-2.156v-5.867h1.705zm2.858-.2l-.2 1.955h-.552c-.25 0-.502 0-.802.05-.301.05-.652.15-1.054.251l-.15-1.153c.401-.351.802-.652 1.204-.853.4-.2.802-.3 1.203-.3h.351v.05zm3.56.001c.752 0 1.404.1 1.855.301.451.2.802.552 1.003 1.003.2.451.301 1.053.301 1.805 0 .753-.1 1.354-.3 1.806-.202.451-.553.752-1.004.953-.451.2-1.103.3-1.855.3s-1.404-.1-1.856-.3c-.451-.201-.802-.502-1.003-.953-.2-.452-.3-1.053-.3-1.806 0-.752.1-1.354.3-1.805a1.96 1.96 0 011.003-1.003c.452-.2 1.053-.3 1.856-.3zm0 1.505c-.251 0-.452.05-.552.15-.15.1-.2.25-.3.451-.05.251-.101.552-.101 1.003 0 .452.05.753.1 1.003.05.251.15.402.301.452.15.1.301.1.552.1.25 0 .451-.05.551-.1.15-.1.251-.251.301-.452.05-.25.1-.551.1-1.003 0-.451-.05-.752-.1-1.003-.05-.25-.15-.4-.3-.45-.151-.101-.302-.151-.552-.151zm6.215-1.308v3.711c0 .2.05.301.1.401.1.1.251.1.401.1.201 0 .402-.05.602-.1.2-.05.452-.15.752-.3l.15 1.103c-.4.35-.802.652-1.203.802-.4.2-.802.25-1.253.25-1.154 0-1.705-.55-1.705-1.654v-4.363h2.156v.05zm3.861 0v5.868h-1.705l-.25-1.204-.201-.15v-4.564h2.156v.05zm2.909.004l.201 1.002.201.201v3.861l-.05.15c0 .252.05.502.05.803v2.106h-2.156V15.04h1.755v-.1zm2.408-.15c.752 0 1.304.25 1.605.801.301.552.501 1.304.501 2.307 0 .803-.1 1.404-.251 1.856-.15.45-.401.752-.752.902-.35.2-.752.251-1.203.251-.452 0-.853-.05-1.204-.2-.401-.151-.702-.352-.953-.652l.15-.903c.201.05.402.1.552.2.2.05.401.1.652.1.2 0 .351-.05.502-.1.1-.05.2-.2.25-.45.05-.201.1-.552.1-1.004 0-.451-.05-.802-.1-1.003-.05-.25-.15-.4-.25-.451a1 1 0 00-.452-.1c-.25 0-.45.05-.601.1-.15.05-.351.15-.552.3l-.3-.852c.15-.2.3-.4.55-.551.252-.15.502-.301.803-.401.301-.1.602-.15.953-.15z" fill="#fff"/><path d="M37.476 30.417c-.312 0-.592-.068-.84-.204a1.488 1.488 0 01-.576-.57 1.667 1.667 0 01-.21-.834c0-.308.07-.584.21-.828.14-.244.332-.434.576-.57.248-.136.528-.204.84-.204.272 0 .514.054.726.162.216.104.386.258.51.462l-.318.216a.972.972 0 00-.396-.348 1.15 1.15 0 00-.522-.12c-.228 0-.434.052-.618.156-.18.1-.322.244-.426.432-.1.188-.15.402-.15.642 0 .244.05.46.15.648.104.184.246.328.426.432.184.1.39.15.618.15a1.2 1.2 0 00.522-.114.972.972 0 00.396-.348l.318.216c-.124.204-.294.36-.51.468a1.652 1.652 0 01-.726.156zm4.403-2.808h-1.194v2.778h-.426v-2.778h-1.194v-.378h2.814v.378zm3.49-.378l-1.579 3.534c-.128.296-.276.506-.444.63a.992.992 0 01-.606.186c-.152 0-.294-.024-.426-.072a.923.923 0 01-.342-.216l.198-.318c.16.16.352.24.576.24.144 0 .266-.04.366-.12.104-.08.2-.216.288-.408l.138-.306-1.41-3.15h.444l1.188 2.682 1.188-2.682h.42zm3.78 2.784v1.134h-.402v-.762h-2.826v.762h-.402v-1.134h.18c.212-.012.356-.168.432-.468.076-.3.128-.72.156-1.26l.042-1.056h2.328v2.784h.492zm-2.472-1.704c-.02.448-.058.818-.114 1.11-.056.288-.156.486-.3.594h1.968v-2.406h-1.518l-.036.702zm3.483-1.08h.426v2.508l2.105-2.508h.378v3.156h-.425v-2.508l-2.1 2.508h-.384V27.23zm6.734 0v3.156h-.39v-1.044h-1.11l-.732 1.044H54.2l.786-1.104a1.066 1.066 0 01-.564-.348.964.964 0 01-.198-.624c0-.352.12-.62.36-.804.24-.184.568-.276.984-.276h1.326zm-2.238 1.092c0 .468.298.702.894.702h.954v-1.416h-.924c-.616 0-.924.238-.924.714zm7.393.432c.428.1.642.358.642.774 0 .276-.102.488-.306.636-.204.148-.508.222-.912.222H60.04V27.23h1.392c.36 0 .642.07.846.21.204.14.306.34.306.6 0 .172-.048.32-.144.444a.826.826 0 01-.39.27zm-1.596-.12h.948c.244 0 .43-.046.558-.138a.46.46 0 00.198-.402.444.444 0 00-.198-.396c-.128-.088-.314-.132-.558-.132h-.948v1.068zm1.002 1.416c.272 0 .476-.044.612-.132.136-.088.204-.226.204-.414 0-.188-.062-.326-.186-.414-.124-.092-.32-.138-.588-.138h-1.044v1.098h1.002zm5.175-1.11h-2.64c.024.328.15.594.378.798.228.2.516.3.864.3.196 0 .376-.034.54-.102.164-.072.306-.176.426-.312l.24.276c-.14.168-.316.296-.528.384a1.754 1.754 0 01-.69.132 1.79 1.79 0 01-.864-.204 1.52 1.52 0 01-.582-.576c-.14-.244-.21-.52-.21-.828 0-.308.066-.584.198-.828.136-.244.32-.434.552-.57.236-.136.5-.204.792-.204.292 0 .554.068.786.204.232.136.414.326.546.57.132.24.198.516.198.828l-.006.132zm-1.524-1.368c-.304 0-.56.098-.768.294-.204.192-.32.444-.348.756h2.238a1.125 1.125 0 00-.354-.756 1.064 1.064 0 00-.768-.294zm4.183-.264c.292 0 .552.066.78.198.232.128.412.31.54.546.128.232.192.498.192.798 0 .308-.068.582-.204.822-.132.236-.318.42-.558.552a1.69 1.69 0 01-.828.198c-.524 0-.93-.184-1.218-.552-.288-.368-.432-.876-.432-1.524 0-.676.128-1.194.384-1.554.26-.36.664-.604 1.212-.732l1.416-.324.072.39-1.332.306c-.452.1-.784.278-.996.534-.212.252-.328.626-.348 1.122.128-.244.306-.434.534-.57.228-.14.49-.21.786-.21zm-.066 2.76c.22 0 .416-.05.588-.15.176-.104.312-.248.408-.432.1-.184.15-.392.15-.624 0-.232-.048-.436-.144-.612a1.002 1.002 0 00-.408-.408 1.16 1.16 0 00-.594-.15c-.224 0-.424.05-.6.15a1.053 1.053 0 00-.408.408c-.096.176-.144.38-.144.612 0 .232.048.44.144.624.1.184.238.328.414.432.176.1.374.15.594.15zm2.483-1.494h1.572v.372h-1.572v-.372zm5.73 1.44v1.134h-.401v-.762h-2.826v.762h-.402v-1.134h.18c.212-.012.356-.168.432-.468.076-.3.128-.72.156-1.26l.042-1.056h2.328v2.784h.492zm-2.471-1.704c-.02.448-.058.818-.114 1.11-.056.288-.156.486-.3.594h1.968v-2.406H75l-.036.702zm3.482-1.08h.426v2.508l2.106-2.508h.378v3.156h-.426v-2.508l-2.1 2.508h-.384V27.23zm5.783 1.512c.224.052.396.142.516.27a.647.647 0 01.186.468.72.72 0 01-.192.492 1.211 1.211 0 01-.51.336 2.139 2.139 0 01-.714.114c-.228 0-.452-.032-.672-.096a1.78 1.78 0 01-.576-.294l.144-.318c.144.108.312.192.504.252s.386.09.582.09c.292 0 .53-.054.714-.162.188-.112.282-.262.282-.45a.433.433 0 00-.228-.39c-.152-.096-.36-.144-.624-.144h-.54v-.312h.516c.236 0 .426-.044.57-.132.144-.092.216-.214.216-.366 0-.168-.082-.3-.246-.396-.16-.096-.37-.144-.63-.144-.34 0-.676.086-1.008.258l-.12-.33a2.5 2.5 0 011.17-.294c.24 0 .456.036.648.108.196.068.348.166.456.294a.654.654 0 01.168.444c0 .16-.056.302-.168.426a.96.96 0 01-.444.276zm2.935-1.536c.412 0 .728.104.948.312.22.204.33.508.33.912v1.956h-.408v-.492a.974.974 0 01-.426.384 1.461 1.461 0 01-.66.138c-.352 0-.632-.084-.84-.252a.814.814 0 01-.312-.666.81.81 0 01.288-.648c.196-.164.506-.246.93-.246h1.002v-.192c0-.272-.076-.478-.228-.618-.152-.144-.374-.216-.666-.216-.2 0-.392.034-.576.102a1.41 1.41 0 00-.474.27l-.192-.318c.16-.136.352-.24.576-.312.224-.076.46-.114.708-.114zm-.15 2.874c.24 0 .446-.054.618-.162.172-.112.3-.272.384-.48v-.516h-.99c-.54 0-.81.188-.81.564 0 .184.07.33.21.438.14.104.336.156.588.156zm2.742-2.85h.426v2.508l2.106-2.508h.378v3.156h-.426v-2.508l-2.1 2.508h-.384V27.23zm1.434-.456c-.272 0-.488-.068-.648-.204-.16-.136-.242-.328-.246-.576h.306a.5.5 0 00.168.378.625.625 0 00.42.138.625.625 0 00.42-.138.492.492 0 00.174-.378h.306c-.004.248-.088.44-.252.576-.16.136-.376.204-.648.204zm2.876.456h.427v1.398h1.986V27.23h.425v3.156h-.425v-1.392h-1.987v1.392h-.425V27.23zm5.315-.024c.412 0 .728.104.948.312.22.204.33.508.33.912v1.956h-.408v-.492a.975.975 0 01-.426.384 1.461 1.461 0 01-.66.138c-.352 0-.632-.084-.84-.252a.814.814 0 01-.312-.666.81.81 0 01.288-.648c.196-.164.506-.246.93-.246h1.002v-.192c0-.272-.076-.478-.228-.618-.152-.144-.374-.216-.666-.216-.2 0-.392.034-.576.102a1.41 1.41 0 00-.474.27l-.192-.318c.16-.136.352-.24.576-.312.224-.076.46-.114.708-.114zm-.15 2.874c.24 0 .446-.054.618-.162.172-.112.3-.272.384-.48v-.516h-.99c-.54 0-.81.188-.81.564 0 .184.07.33.21.438.14.104.336.156.588.156z" fill="#B8B8B8"/></svg>