<svg width="145" height="30" fill="none" xmlns="http://www.w3.org/2000/svg"><path d="M33.743 29.475c-.39.022-.866.033-1.4.017-1.167-.035-6.746-.33-11.225-4.643-1.278-1.229-2.032-2.37-2.563-3.179-1.093-1.671-1.51-3.025-2.973-7.052a213.053 213.053 0 01-3.747-11.27c-.174-.48-.977-2.705-1.056-2.897a.357.357 0 00-.335-.222h-.08a.38.38 0 00-.144.028.368.368 0 00-.182.174l-.015.037a45.583 45.583 0 00-1.398 4.16L3.081 21c-.079.227-.157.454-.238.68a10.421 10.421 0 01-2.318 3.57.329.329 0 00.233.56h2.04a.328.328 0 00.318-.416 6.82 6.82 0 01-.244-1.365 4.776 4.776 0 01.177-1.666l1.854-5.474a12.42 12.42 0 014.599.715c2.74.982 4.537 2.71 5.56 3.986l.018.024a18.317 18.317 0 00.964 1.466c2.465 3.387 6.048 5.827 10.562 6.605 2.716.466 4.8.293 5.329.23a16.275 16.275 0 001.826-.325c.069-.016.055-.119-.017-.115zM12.76 16.528c.32.906.808 2.16 1.528 3.607a12.86 12.86 0 00-4.648-2.914 12.805 12.805 0 00-4.598-.74l3.893-11.5 3.825 11.546v.001zM8.86 4.756l-.016-.006.007-.022.009.027zm117.654 17.046a11.766 11.766 0 01-3.158 1.916c-4.72 1.913-11.175.853-14.514-3.451-1.187-1.531-2.016-3.405-2.332-5.55-.954-5.536 1.2-11.86 7.07-13.64 2.743-.832 6.947-.886 9.446 1.875.827.914 1.287 1.93 1.546 2.803.108.364.631.35.715-.02.023-.098.044-.198.065-.302.044-.223.338-1.436.18-2.053-.379-1.483-3.488-2.466-4.834-2.861-3.504-.934-7.218-.589-10.421.963-11.414 5.52-9.072 22.705 4.054 24.605 3.71.536 9.534-.308 12.365-4.098l.008-.01c.095-.126-.07-.281-.19-.18v.003zm17.108 1.032a8.032 8.032 0 01-2.527 1.968 7.857 7.857 0 01-1.244.488c-.03.01-.062.017-.093.026a5.23 5.23 0 01-.702.087h-4.102c-.127 0-.304-.02-.497-.097l-.035-.016a2.369 2.369 0 01-.56-.37 2.543 2.543 0 01-.552-.73s-.034-.061-.065-.127c-.184-.38-.328-1.317-.404-1.925a7.8 7.8 0 01-.059-.966l.002-6.96c-.017-.102-.108-.75.324-1.248.147-.17.323-.283.497-.362a1.35 1.35 0 01.516-.095h3.491a2.208 2.208 0 01.654.103l.011.004a3.876 3.876 0 011.995 1.456c.143.2.457.104.457-.143v-3.199c0-.244-.312-.343-.455-.146a3.863 3.863 0 01-1.968 1.421 3.255 3.255 0 01-.703.097h-3.297a1.334 1.334 0 01-.5-.077c-.287-.112-.571-.29-.767-.578-.266-.392-.258-.822-.255-.982.016-1.059.006-4.329.017-8.778.022-.13.109-.536.47-.862a.765.765 0 01.218-.145c.142-.06.281-.063.42-.067h5.148a4.879 4.879 0 01.71.089l.086.023a7.941 7.941 0 013.771 2.457c.173.201.503.08.503-.185v-.186a2.606 2.606 0 00-2.606-2.606h-8.927v.002l-3.928-.004a.298.298 0 00-.236.48c.187.238.383.525.561.864.725 1.38.673 2.705.673 3.233l-.011 17.149a5.51 5.51 0 01-1.219 3.398.297.297 0 00.233.483h12.854a2.606 2.606 0 002.606-2.606v-.186a.286.286 0 00-.503-.185l-.002.003zm-59.958-9.753v-.036C83.796 5.657 78.58 1.237 72.697.229a13.13 13.13 0 00-2.924-.22C64.272.122 58.855 3.184 57.17 9.544c-1.423 5.683.672 11.89 5.822 14.702a14.33 14.33 0 004.45 1.627 13.088 13.088 0 006.731-.292c5.292-1.482 9.577-5.91 9.49-12.498zM62.51 3.121c.214-.198.425-.369.623-.518A12.615 12.615 0 0168.22.572 9.317 9.317 0 0169.585.53c1.354.11 2.76.499 4.166 1.198 7.572 3.547 9.553 16.936 3.137 21.984a5.444 5.444 0 01-.172.13l-.002.003-.009.007c.03-.04.064-.077.093-.119.125-.18.23-.37.276-.585a1.7 1.7 0 00-.116-1.104 1.504 1.504 0 00-1.033-.857 1.487 1.487 0 00-.899.059 1.904 1.904 0 00-.5.273l-.027-.146c-.12-.598-.481-.991-1.038-1.216a1.419 1.419 0 00-.246-.067 1.487 1.487 0 00-.704.02c-.507.143-.827.495-1.036.96a1.961 1.961 0 00-.15.767c-.009.403.066.795.18 1.18.122.403.287.788.478 1.164.233.457.499.893.797 1.31h-.001l-.133.02c-8.195 1.017-13.162-7.02-12.94-14.741v-.04c-.019-2.983.887-5.435 2.38-7.192a8.86 8.86 0 01.423-.419l.001.002z" fill="#fff"/><path d="M101.701.35h-2.438A.33.33 0 0099 .879c.312.424.648.983.905 1.68.185.501.289.969.346 1.371.009.089.013.172.016.253v16.044C92.564 7.69 89.465 2.751 88.762 1.754l-.01-.015A3.316 3.316 0 0086.054.352h-1.5a.257.257 0 00-.257.222c-.01.06.002.123.04.18.404.596.817 1.35 1.13 2.262v.004c.05.148.094.292.135.433a1.897 1.897 0 01.06.49v18.276a3.282 3.282 0 01-.094.707 7.688 7.688 0 01-.319.927 7.421 7.421 0 01-.88 1.596.33.33 0 00.266.526h2.438a.33.33 0 00.263-.527 6.79 6.79 0 01-1.252-3.052 4.184 4.184 0 01-.015-.252V3.552l13.775 22.222a.45.45 0 00.196.163c.002 0 .002.002.003.002a.454.454 0 00.631-.419V4.105a3.246 3.246 0 01.092-.707 7.72 7.72 0 01.319-.926 7.422 7.422 0 01.881-1.597.33.33 0 00-.266-.525h.001zm-46.584 0h-2.438a.33.33 0 00-.263.528 6.72 6.72 0 011.251 3.05c.008.09.014.173.016.253v16.045C45.98 7.69 42.881 2.751 42.18 1.754l-.011-.015A3.309 3.309 0 0040.841.648a.328.328 0 00-.33-.322h-2.438a.34.34 0 00-.137.029.257.257 0 00-.222.22c-.01.06.002.123.04.18l.01.014a.37.37 0 00.045.084c.035.049.073.098.107.151.324.508.641 1.117.9 1.826.124.39.2.752.247 1.074.008.089.012.172.014.253v16.045C31.375 7.665 28.275 2.727 27.573 1.729l-.01-.014A3.317 3.317 0 0024.864.327h-1.5a.257.257 0 00-.257.223c-.01.06.001.123.04.18a9.552 9.552 0 011.265 2.698 1.78 1.78 0 01.06.49v18.276h-.002a3.156 3.156 0 01-.092.707 7.728 7.728 0 01-.317.926 7.425 7.425 0 01-.881 1.596.33.33 0 00.266.526h2.438a.33.33 0 00.263-.527 6.797 6.797 0 01-1.253-3.051 4.04 4.04 0 01-.014-.252V3.527l13.258 21.39.515.832a.452.452 0 00.197.163.455.455 0 00.633-.417V4.08c.002-.103.01-.216.024-.337.006-.043.011-.083.018-.123L53.26 25.774c.05.072.117.13.197.163l.002.002a.454.454 0 00.63-.419V4.105c.003-.103.01-.215.024-.337a3.53 3.53 0 01.069-.37 7.73 7.73 0 01.319-.925 7.42 7.42 0 01.88-1.597.33.33 0 00-.266-.525h.003z" fill="#fff"/></svg>