<svg width="14" height="15" fill="none" xmlns="http://www.w3.org/2000/svg"><path fill-rule="evenodd" clip-rule="evenodd" d="M6.339 1.33C3.322 1.33.845 3.755.845 6.784s2.477 5.453 5.494 5.453a5.503 5.503 0 003.613-1.345.392.392 0 01.125-.224.43.43 0 01.224-.106 5.407 5.407 0 001.532-3.778c0-3.029-2.477-5.454-5.494-5.454zm4.67 9.682a6.192 6.192 0 001.669-4.228c0-3.437-2.82-6.254-6.339-6.254C2.821.53 0 3.347 0 6.784c0 3.436 2.82 6.253 6.339 6.253a6.36 6.36 0 004.072-1.46l2.861 2.83a.44.44 0 00.598.013.385.385 0 00.013-.566l-2.873-2.842z" fill="#575757"/></svg>