<svg width="22" height="19" fill="none" xmlns="http://www.w3.org/2000/svg"><path d="M21.959.91c-.08-.227-.174-.29-.321-.345-.32-.121-.865.06-.865.06S1.496 7.496.396 8.257c-.239.164-.318.258-.355.37-.19.542.404.782.404.782l4.968 1.606s.186.027.25-.016c1.131-.709 11.373-7.12 11.963-7.336.095-.027.162.003.144.067-.236.824-9.13 8.663-9.13 8.663s-.034.043-.055.091l-.013-.006-.464 4.888s-.196 1.497 1.317 0a42.27 42.27 0 012.612-2.37c1.708 1.17 3.548 2.464 4.34 3.14.396.34.733.394 1.005.385.751-.028.962-.849.962-.849s3.514-14.021 3.63-15.9c.012-.185.027-.3.027-.427 0-.176-.015-.352-.042-.436V.91z" fill="#fff"/></svg>