<svg width="14" height="15" fill="none" xmlns="http://www.w3.org/2000/svg"><path d="M14 7.523C14 3.663 10.864.53 7 .53S0 3.663 0 7.523c0 2.127.966 4.043 2.478 5.33.014.013.028.013.028.027.126.098.252.196.392.294.07.042.126.097.196.153a6.983 6.983 0 007.84 0c.07-.042.126-.097.196-.14.126-.097.266-.195.392-.293.014-.014.028-.014.028-.028C13.034 11.566 14 9.65 14 7.523zM7 13.65c-1.316 0-2.52-.42-3.514-1.119.014-.112.042-.223.07-.335.083-.303.206-.595.364-.867.154-.266.336-.504.56-.714.21-.21.462-.405.714-.56A3.631 3.631 0 017 9.58a3.662 3.662 0 012.562 1.02c.322.322.574.7.756 1.133.098.252.168.518.21.797A6.151 6.151 0 017 13.65zM4.858 7.174a2.179 2.179 0 01-.182-.896c0-.307.056-.615.182-.895a2.48 2.48 0 01.504-.74c.21-.21.462-.378.742-.504.28-.126.588-.182.896-.182.322 0 .616.056.896.182s.532.294.742.503c.21.21.378.462.504.741.126.28.182.588.182.895 0 .322-.056.616-.182.895a2.485 2.485 0 01-.504.742 2.485 2.485 0 01-.742.504 2.376 2.376 0 01-1.806 0 2.485 2.485 0 01-.742-.504 2.207 2.207 0 01-.49-.74zm6.496 4.643c0-.028-.014-.042-.014-.07a4.567 4.567 0 00-.602-1.23 4.272 4.272 0 00-.952-.993 4.556 4.556 0 00-.91-.532c.147-.097.283-.21.406-.335.209-.206.392-.437.546-.686.31-.51.47-1.096.462-1.693a3.246 3.246 0 00-.252-1.286 3.324 3.324 0 00-.714-1.049 3.364 3.364 0 00-1.05-.7 3.255 3.255 0 00-1.288-.251 3.255 3.255 0 00-1.288.252 3.177 3.177 0 00-1.05.713 3.36 3.36 0 00-.7 1.05c-.17.406-.256.844-.252 1.285 0 .308.042.602.126.881.084.294.196.56.35.812.14.252.336.476.546.686.126.126.266.237.42.335a4.48 4.48 0 00-.91.546 4.85 4.85 0 00-.952.979 4.374 4.374 0 00-.602 1.23c-.014.028-.014.056-.014.07C1.554 10.712.868 9.201.868 7.523c0-3.37 2.758-6.125 6.132-6.125 3.374 0 6.132 2.755 6.132 6.125a6.09 6.09 0 01-1.778 4.294z" fill="#575757"/></svg>