<svg width="18" height="19" fill="none" xmlns="http://www.w3.org/2000/svg"><g clip-path="url(#clip0_1_23)"><path d="M17.671 9.35c0-4.872-3.958-8.826-8.836-8.826C3.958.524 0 4.478 0 9.35a8.83 8.83 0 003.128 6.726c.018.018.035.018.035.035.16.124.319.248.495.372.089.053.16.122.248.193a8.813 8.813 0 009.896 0c.088-.053.159-.123.247-.177.16-.122.336-.246.495-.37.018-.017.036-.017.036-.035 1.873-1.642 3.092-4.06 3.092-6.744zm-8.836 7.733A7.67 7.67 0 014.4 15.671c.018-.142.053-.282.089-.423.105-.383.26-.751.46-1.095.194-.336.423-.636.706-.901a4.96 4.96 0 01.901-.706c.336-.194.69-.336 1.078-.442a4.583 4.583 0 011.202-.158 4.622 4.622 0 013.234 1.288c.406.407.725.884.954 1.43.124.319.212.654.265 1.007a7.764 7.764 0 01-4.453 1.412zM6.131 8.91a2.75 2.75 0 01-.23-1.13c0-.389.071-.777.23-1.13.16-.354.371-.671.636-.936.266-.265.584-.476.937-.635.354-.16.742-.23 1.131-.23.407 0 .778.07 1.131.23.354.159.672.37.937.635s.477.583.636.935c.159.354.23.742.23 1.13 0 .407-.071.778-.23 1.13a3.135 3.135 0 01-.636.937 3.138 3.138 0 01-.937.635 3 3 0 01-2.28 0 3.138 3.138 0 01-.936-.635 2.785 2.785 0 01-.619-.936zm8.2 5.86c0-.035-.018-.053-.018-.088a5.765 5.765 0 00-.76-1.553 5.39 5.39 0 00-1.201-1.253 5.752 5.752 0 00-1.149-.672 3.11 3.11 0 00.513-.423c.263-.26.495-.55.689-.866a4.002 4.002 0 00.583-2.136 4.096 4.096 0 00-.318-1.624 4.197 4.197 0 00-.901-1.324 4.249 4.249 0 00-1.326-.883 4.11 4.11 0 00-1.626-.317 4.109 4.109 0 00-1.625.318 4.01 4.01 0 00-1.326.9 4.241 4.241 0 00-.883 1.324 4.098 4.098 0 00-.318 1.624c0 .389.053.76.159 1.112.106.371.247.707.441 1.024.177.318.425.6.69.866.159.159.335.3.53.423a5.656 5.656 0 00-1.149.689c-.46.354-.866.777-1.202 1.236a5.52 5.52 0 00-.76 1.553c-.017.035-.017.07-.017.088-1.396-1.412-2.262-3.319-2.262-5.437 0-4.255 3.481-7.733 7.74-7.733 4.26 0 7.74 3.478 7.74 7.733a7.687 7.687 0 01-2.244 5.42z" fill="#fff"/></g><defs><clipPath id="clip0_1_23"><path fill="#fff" transform="translate(0 .524)" d="M0 0h17.672v17.672H0z"/></clipPath></defs></svg>