<svg width="32" height="19" fill="none" xmlns="http://www.w3.org/2000/svg"><path d="M31.866 1.647l.105.165c.05.37-.013.718-.168 1.06-.108.24-.215.48-.32.722a.798.798 0 00-.12.237c-.272.488-.614.936-.905 1.412-.044.025-.048.069-.048.112-.063.094-.158.156-.218.258-.088.153-.2.293-.31.433-.234.296-.459.591-.668.902-.104.134-.205.268-.31.405-.212.258-.427.513-.64.771-.097.206-.265.367-.392.554-.066.1-.158.177-.212.286a5.134 5.134 0 00-.572.8c-.12.205-.228.404-.285.635-.035.043-.016.093-.016.143-.063.1.01.202-.003.305a.36.36 0 00.038.19c.114.258.256.5.468.693.212.193.39.417.605.607.338.299.658.616.987.927.174.171.351.342.525.517.146.143.288.289.434.432.11.112.24.209.329.336.095.137.215.246.335.355l.023.021c.006.01.015.02.022.025l.082.1c.047.115.158.177.231.27.234.293.456.598.661.912.105.159.206.32.291.492.095.19.15.383.178.594a.687.687 0 01-.086.451c-.152.274-.42.402-.693.51-.196.078-.395.156-.614.15-.234 0-.471 0-.705-.003-.07 0-.14.003-.2.043-.054.013-.11-.028-.168.006a.06.06 0 00-.022.007 56.528 56.528 0 00-2.05 0c-.102.025-.212.003-.314.037h-1.047c-.025.003-.048.003-.073.003-.225.01-.44-.034-.652-.096-.576-.165-1.114-.402-1.554-.815-.26-.246-.55-.455-.8-.71a.737.737 0 00-.222-.28c-.193-.224-.383-.45-.579-.672-.149-.165-.307-.32-.459-.482-.025-.022-.047-.047-.072-.069-.219-.22-.428-.45-.662-.656-.203-.177-.424-.342-.7-.405a.143.143 0 00-.097-.037.99.99 0 00-.69.212c-.098.077-.155.174-.235.264a.7.7 0 00-.164.274c-.11.19-.193.389-.237.61-.092.476-.2.949-.174 1.437.015.305-.083.582-.197.856a.485.485 0 01-.133.19c-.196.161-.44.214-.674.289-.11 0-.224 0-.335.003H14.86a9.725 9.725 0 01-.605-.093c-.351-.072-.715-.087-1.054-.227-.038-.016-.085-.01-.13-.013a31.224 31.224 0 00-.503-.155c-.063-.025-.123-.056-.186-.072-.336-.084-.643-.246-.969-.36-.443-.156-.835-.42-1.234-.664-.209-.127-.399-.276-.617-.389a.38.38 0 00-.212-.143c-.013-.046-.054-.065-.092-.084a1.681 1.681 0 01-.335-.252c-.323-.308-.687-.569-1.007-.88-.025-.022-.047-.047-.072-.069-.111-.124-.263-.217-.355-.348-.149-.209-.332-.389-.49-.588-.108-.134-.206-.274-.348-.377-.016-.052-.057-.08-.098-.115-.102-.127-.216-.248-.301-.385-.2-.318-.443-.6-.658-.906-.051-.152-.193-.23-.282-.351-.057-.084-.114-.165-.17-.25a11.739 11.739 0 01-.577-.899c-.057-.164-.174-.292-.282-.423-.113-.161-.208-.336-.313-.504-.19-.31-.39-.616-.55-.942-.092-.187-.235-.34-.326-.523a1.399 1.399 0 00-.187-.376c-.092-.156-.196-.309-.279-.47a9.446 9.446 0 00-.443-.803c-.117-.19-.215-.386-.316-.582-.155-.295-.31-.591-.468-.887 0-.065-.035-.115-.073-.161a143.7 143.7 0 01-.5-.983C.82 4.1.85 4.036.783 3.993c0-.044-.022-.081-.044-.119-.126-.211-.228-.432-.332-.653-.08-.162-.149-.33-.222-.495-.01-.087-.057-.155-.098-.23-.06-.218-.114-.436-.073-.666.023-.127.099-.208.197-.277.126-.09.275-.13.43-.158.098 0 .196-.02.294-.022.839-.028 1.678.04 2.513-.047.326-.034.658-.01.987-.01h1.188c.252.085.518.131.736.296.127.075.203.19.273.318.091.17.145.358.256.52.149.416.358.808.525 1.219.035.1.083.193.143.28.01.065.06.109.088.162.26.498.475 1.017.8 1.48.042.11.07.225.16.309.04.13.173.196.218.33.034.108.107.199.17.292.105.159.206.317.31.476.013.031.023.068.039.096.183.293.38.58.6.844.093.155.194.305.336.423.01.053.035.093.073.127.063.06.127.115.184.18.167.203.364.368.579.514.139.084.29.143.446.159.294.028.49-.118.633-.367.155-.265.183-.563.272-.847.013-.149.044-.295.066-.445.051-.298.026-.6.076-.896V5.613c.042-.03.042-.062 0-.09 0-.093 0-.19-.003-.283.007-.075.016-.15-.006-.22a1.434 1.434 0 01-.035-.368c.006-.124 0-.249-.006-.37-.003-.103.028-.209-.02-.308-.012-.097-.034-.19-.037-.286-.013-.215-.111-.408-.14-.62a1.058 1.058 0 00-.262-.55c-.247-.27-.535-.492-.915-.563-.161-.031-.307-.119-.478-.115-.132.003-.145-.025-.098-.156.095-.252.285-.423.5-.573.117-.115.273-.168.405-.255.155-.028.307-.071.456-.115.38-.115.779-.109 1.165-.174h.072c.016 0 .032 0 .048-.003.01 0 .019-.006.028-.01.298-.046.599-.015.9-.03h.382c.168 0 .332.003.5.003.535 0 1.067-.016 1.598.056.21.059.434.028.643.09.019.006.034.015.053.018.364.06.712.15.997.402.022.124.146.186.19.295.057.14.101.287.152.43.022.19.06.38.067.572.009.361 0 .722 0 1.086 0 .121-.045.24-.026.364l-.01.01v.009c-.021.053-.009.106-.012.162-.013.317.029.634-.025.948-.02.02-.02.04-.01.063 0 .018 0 .034-.003.053v2.887c.029.084.035.171.048.258.022.159.022.327.117.47.057.208.199.367.348.51.085.081.218.171.338.137.25-.072.507-.156.674-.38a1.06 1.06 0 00.333-.276c.202-.246.443-.464.607-.74.073-.044.092-.125.146-.181.2-.218.335-.48.513-.713.053-.08.13-.15.145-.252.165-.121.218-.314.32-.476.158-.255.335-.5.459-.775.057-.1.098-.208.167-.305.168-.233.276-.497.412-.75.098-.158.174-.326.256-.494l.703-1.565c.088-.261.212-.507.332-.756.031-.025.063-.047.092-.072.183-.149.386-.245.633-.236.234.01.468 0 .702 0h4.187c.06 0 .12.006.177-.016.12-.006.237-.043.36-.034.096.006.184.047.276.047.326-.006.611.08.848.308l-.003-.034z" fill="#fff"/></svg>